<svg xmlns="http://www.w3.org/2000/svg" xmlns:xlink="http://www.w3.org/1999/xlink" width="1080" zoomAndPan="magnify" viewBox="0 0 810 809.999993" height="1080" preserveAspectRatio="xMidYMid meet" version="1.0"><defs><clipPath id="9153ddb4e2"><path d="M 61 44 L 776.417969 44 L 776.417969 810 L 61 810 Z M 61 44 " clip-rule="nonzero"/></clipPath><clipPath id="4aac0bda70"><path d="M 117 89 L 776.417969 89 L 776.417969 810 L 117 810 Z M 117 89 " clip-rule="nonzero"/></clipPath><clipPath id="7eba293054"><path d="M 159 134 L 776.417969 134 L 776.417969 810 L 159 810 Z M 159 134 " clip-rule="nonzero"/></clipPath><clipPath id="cf3cccaf35"><path d="M 209 173 L 776.417969 173 L 776.417969 810 L 209 810 Z M 209 173 " clip-rule="nonzero"/></clipPath><clipPath id="ae9ca2ad8f"><path d="M 262 218 L 776.417969 218 L 776.417969 810 L 262 810 Z M 262 218 " clip-rule="nonzero"/></clipPath><clipPath id="e23dd11148"><path d="M 315 265 L 776.417969 265 L 776.417969 810 L 315 810 Z M 315 265 " clip-rule="nonzero"/></clipPath></defs><g clip-path="url(#9153ddb4e2)"><path fill="#f8ce4d" d="M 776.429688 47.238281 L 776.429688 335.058594 C 771.332031 338.25 766.375 341.628906 761.550781 345.171875 C 744.15625 357.953125 728.65625 373.097656 715.941406 391.015625 C 693.480469 422.664062 679.695312 462.9375 679.695312 514.210938 C 679.695312 581.101562 661.902344 609.933594 634.707031 622.835938 C 580.050781 648.761719 487.378906 610.277344 424.589844 686.601562 C 400.71875 715.617188 387.8125 761.023438 381.351562 809.84375 L 70.773438 809.84375 C 70.773438 809.84375 33.929688 546.21875 110.84375 452.722656 C 204.878906 338.417969 365.949219 481.648438 365.949219 280.328125 C 365.949219 0.136719 776.429688 47.238281 776.429688 47.238281 Z M 776.429688 47.238281 " fill-opacity="1" fill-rule="nonzero"/><path fill="#dd2a55" d="M 776.429688 47.238281 L 776.429688 90.015625 C 664.316406 88.632812 421.492188 110.507812 421.492188 326.027344 C 421.492188 527.347656 260.417969 384.117188 166.386719 498.421875 C 109.429688 567.65625 114.851562 730.15625 121.5 809.84375 L 70.773438 809.84375 C 70.773438 809.84375 33.929688 546.21875 110.84375 452.722656 C 204.878906 338.417969 365.949219 481.648438 365.949219 280.328125 C 365.949219 0.136719 776.429688 47.238281 776.429688 47.238281 Z M 776.429688 47.238281 " fill-opacity="1" fill-rule="nonzero"/></g><g clip-path="url(#4aac0bda70)"><path fill="#f77b28" d="M 776.429688 90.015625 L 776.429688 134.8125 C 655.015625 140.15625 463.824219 178.917969 463.824219 370.152344 C 463.824219 571.476562 302.75 428.242188 208.71875 542.546875 C 160.921875 600.648438 157.058594 724.433594 160.980469 809.84375 L 121.5 809.84375 C 114.851562 730.15625 109.429688 567.65625 166.386719 498.421875 C 260.417969 384.117188 421.492188 527.347656 421.492188 326.027344 C 421.492188 110.507812 664.316406 88.632812 776.429688 90.015625 Z M 776.429688 90.015625 " fill-opacity="1" fill-rule="nonzero"/></g><g clip-path="url(#7eba293054)"><path fill="#f8ce4d" d="M 209.859375 809.84375 L 160.980469 809.84375 C 157.058594 724.433594 160.921875 600.648438 208.71875 542.546875 C 302.75 428.242188 463.824219 571.476562 463.824219 370.152344 C 463.824219 178.917969 655.015625 140.15625 776.425781 134.8125 L 776.425781 173.949219 C 658.78125 187.847656 513.757812 238.753906 513.757812 405.300781 C 513.757812 606.621094 352.683594 463.390625 258.652344 577.695312 C 217.089844 628.21875 208.75 728.40625 209.859375 809.84375 Z M 209.859375 809.84375 " fill-opacity="1" fill-rule="nonzero"/></g><g clip-path="url(#cf3cccaf35)"><path fill="#4d9f54" d="M 776.429688 173.949219 L 776.429688 218.660156 C 716.605469 231.539062 656.21875 256.054688 615.574219 301.496094 C 585.34375 335.289062 566.027344 380.636719 566.027344 441.390625 C 566.027344 518.039062 542.667969 544.722656 508.5625 554.714844 C 453.085938 570.960938 369.152344 543 310.921875 613.785156 C 275.335938 657.042969 264.105469 736.710938 262.308594 809.84375 L 209.859375 809.84375 C 208.75 728.40625 217.089844 628.21875 258.652344 577.695312 C 352.683594 463.390625 513.757812 606.621094 513.757812 405.300781 C 513.757812 238.753906 658.78125 187.847656 776.429688 173.949219 Z M 776.429688 173.949219 " fill-opacity="1" fill-rule="nonzero"/></g><g clip-path="url(#ae9ca2ad8f)"><path fill="#3d81db" d="M 776.429688 218.660156 L 776.429688 265.460938 C 751.890625 274.035156 728.3125 285.160156 707.160156 299.480469 C 686.757812 313.292969 668.644531 330.097656 654.144531 350.507812 C 631.644531 382.167969 617.832031 422.472656 617.832031 473.796875 C 617.832031 504.484375 614.070312 527.128906 607.394531 543.9375 C 570.269531 637.402344 442.425781 549.308594 362.726562 646.191406 C 332.351562 683.113281 319.726562 746.570312 315.558594 809.84375 L 262.308594 809.84375 C 264.105469 736.710938 275.335938 657.042969 310.921875 613.785156 C 369.152344 543 453.085938 570.960938 508.5625 554.710938 C 542.667969 544.722656 566.027344 518.039062 566.027344 441.390625 C 566.027344 380.636719 585.34375 335.289062 615.574219 301.496094 C 656.21875 256.054688 716.605469 231.539062 776.429688 218.660156 Z M 776.429688 218.660156 " fill-opacity="1" fill-rule="nonzero"/></g><g clip-path="url(#e23dd11148)"><path fill="#b07acc" d="M 776.429688 265.460938 L 776.429688 335.058594 C 771.332031 338.25 766.375 341.628906 761.550781 345.171875 C 744.15625 357.953125 728.65625 373.097656 715.941406 391.015625 C 693.480469 422.664062 679.695312 462.9375 679.695312 514.210938 C 679.695312 581.101562 661.902344 609.933594 634.707031 622.835938 C 580.050781 648.761719 487.378906 610.277344 424.589844 686.601562 C 400.71875 715.617188 387.8125 761.023438 381.351562 809.84375 L 315.558594 809.84375 C 319.726562 746.570312 332.351562 683.113281 362.726562 646.191406 C 442.425781 549.308594 570.269531 637.402344 607.394531 543.9375 C 614.074219 527.128906 617.832031 504.484375 617.832031 473.796875 C 617.832031 422.472656 631.644531 382.167969 654.144531 350.507812 C 668.644531 330.097656 686.757812 313.289062 707.160156 299.480469 C 728.3125 285.160156 751.890625 274.035156 776.429688 265.460938 Z M 776.429688 265.460938 " fill-opacity="1" fill-rule="nonzero"/></g></svg>