<svg xmlns="http://www.w3.org/2000/svg" xmlns:xlink="http://www.w3.org/1999/xlink" width="1080" zoomAndPan="magnify" viewBox="0 0 810 809.999993" height="1080" preserveAspectRatio="xMidYMid meet" version="1.0"><defs><clipPath id="5cdee0c36e"><path d="M 0.335938 432 L 362.433594 432 L 362.433594 636.117188 L 0.335938 636.117188 Z M 0.335938 432 " clip-rule="nonzero"/></clipPath><clipPath id="af8e0e2b39"><path d="M 446.058594 432 L 809.636719 432 L 809.636719 636.117188 L 446.058594 636.117188 Z M 446.058594 432 " clip-rule="nonzero"/></clipPath><clipPath id="d8bb82436b"><path d="M 284 174.148438 L 524 174.148438 L 524 537 L 284 537 Z M 284 174.148438 " clip-rule="nonzero"/></clipPath></defs><g clip-path="url(#5cdee0c36e)"><path fill="#961163" d="M 252.851562 613.449219 C 243.230469 613.449219 233.667969 612.988281 224.214844 612 C 208.402344 610.34375 192.921875 607.183594 178.042969 602.554688 C 163.179688 597.855469 148.960938 591.570312 135.714844 583.695312 C 122.441406 575.859375 109.644531 566.371094 97.6875 556.28125 C 85.820312 546 74.480469 535.035156 64.210938 523.09375 C 58.980469 517.21875 54.039062 511.09375 49.300781 504.855469 L 43.957031 497.441406 C 44.699219 496.855469 45.417969 496.253906 46.167969 495.671875 C 50.785156 492.125 55.609375 488.78125 60.578125 485.675781 C 70.554688 479.5 81.070312 474.175781 91.988281 469.941406 C 110.570312 462.800781 130.355469 458.851562 150.425781 458.851562 C 151.761719 458.851562 153.105469 458.945312 154.445312 458.980469 C 150.589844 451.453125 147 443.464844 143.863281 435.035156 C 143.59375 434.316406 143.367188 433.667969 143.117188 432.972656 C 140.5625 432.859375 138.015625 432.679688 135.453125 432.679688 C 117.363281 432.675781 99.1875 435.496094 81.9375 441.015625 C 68.703125 445.152344 55.96875 450.734375 43.941406 457.558594 C 37.917969 460.957031 32.050781 464.640625 26.351562 468.628906 C 23.503906 470.632812 20.722656 472.746094 17.960938 474.945312 C 16.578125 476.058594 15.207031 477.175781 13.832031 478.355469 L 11.757812 480.167969 C 11.011719 480.839844 10.460938 481.324219 9.449219 482.308594 L 0.335938 491.132812 L 6.558594 502.542969 C 7.917969 505.039062 8.972656 506.789062 10.179688 508.808594 L 13.765625 514.527344 C 16.167969 518.292969 18.71875 521.914062 21.304688 525.507812 C 26.5625 532.605469 32.019531 539.527344 37.796875 546.167969 C 49.421875 559.378906 62.042969 571.75 75.886719 582.703125 C 89.6875 593.804688 104.488281 603.261719 120.328125 611.667969 C 136.304688 619.816406 153.160156 626.304688 170.535156 630.175781 C 187.867188 634.214844 205.539062 636.027344 223.027344 636.117188 C 240.53125 636.03125 257.851562 634.191406 274.726562 630.808594 C 283.171875 629.140625 291.476562 626.960938 299.691406 624.636719 C 307.871094 622.148438 315.949219 619.441406 323.855469 616.316406 C 337.152344 611.054688 350.070312 604.957031 362.273438 597.734375 L 358.570312 596.9375 C 330.117188 605.554688 301.148438 610.984375 272.328125 612.839844 C 265.820312 613.242188 259.320312 613.449219 252.851562 613.449219 " fill-opacity="1" fill-rule="nonzero"/></g><path fill="#040606" d="M 369.105469 593.613281 C 367.339844 594.199219 365.5625 594.730469 363.796875 595.289062 L 365.179688 595.980469 C 366.480469 595.183594 367.820312 594.441406 369.105469 593.613281 " fill-opacity="1" fill-rule="nonzero"/><path fill="#040606" d="M 154.179688 446.394531 C 152.25 442.054688 150.464844 437.652344 148.804688 433.195312 C 150.464844 437.652344 152.25 442.054688 154.179688 446.394531 " fill-opacity="1" fill-rule="nonzero"/><path fill="#d61362" d="M 251.953125 531.460938 C 239.816406 520.726562 228.542969 509.207031 218.527344 496.867188 C 210.46875 486.921875 203.296875 476.421875 197.007812 465.515625 C 195.488281 462.878906 193.976562 460.238281 192.5625 457.554688 C 189.550781 451.753906 186.882812 445.8125 184.445312 439.800781 C 181.0625 431.472656 178.179688 422.972656 175.976562 414.304688 C 172.136719 399.382812 169.796875 383.628906 168.484375 368.050781 C 167.363281 352.390625 167.105469 336.617188 168.289062 320.921875 C 168.746094 313.066406 169.589844 305.242188 170.652344 297.484375 L 172.117188 288.464844 C 173.054688 288.578125 173.988281 288.65625 174.929688 288.777344 C 180.703125 289.53125 186.480469 290.578125 192.195312 291.894531 C 203.617188 294.574219 214.820312 298.246094 225.539062 302.964844 C 246.925781 312.472656 266.386719 326.253906 281.957031 344.167969 C 283.257812 345.636719 284.472656 347.1875 285.71875 348.707031 C 286.679688 345.699219 287.722656 342.617188 288.960938 339.359375 C 291.078125 333.8125 293.519531 328.199219 296.097656 322.585938 C 280.796875 303.101562 261.050781 286.816406 238.894531 275.40625 C 226.609375 268.984375 213.65625 263.925781 200.324219 260.253906 C 193.660156 258.398438 186.90625 256.859375 180.054688 255.648438 C 176.621094 255.050781 173.15625 254.585938 169.648438 254.1875 C 167.886719 253.996094 166.128906 253.816406 164.320312 253.679688 L 161.570312 253.496094 C 160.566406 253.445312 159.832031 253.398438 158.421875 253.375 L 145.738281 253.175781 L 142.0625 265.644531 C 141.257812 268.367188 140.765625 270.351562 140.191406 272.632812 L 138.679688 279.207031 C 137.714844 283.570312 136.953125 287.933594 136.246094 292.304688 C 134.9375 301.035156 133.902344 309.789062 133.285156 318.5625 C 132.160156 336.121094 132.335938 353.792969 134.371094 371.320312 C 136.277344 388.921875 140.054688 406.070312 145.304688 423.210938 C 145.8125 424.765625 146.390625 426.300781 146.929688 427.847656 C 147.242188 428.738281 147.546875 429.632812 147.867188 430.523438 C 148.191406 431.410156 148.476562 432.3125 148.804688 433.195312 C 150.464844 437.652344 152.25 442.054688 154.179688 446.394531 C 156.113281 450.730469 158.183594 454.996094 160.40625 459.175781 C 160.902344 460.113281 161.484375 460.996094 162 461.921875 C 162.511719 462.855469 163.066406 463.757812 163.59375 464.675781 C 164.953125 467.050781 166.246094 469.472656 167.714844 471.78125 C 177.113281 486.886719 188.324219 500.65625 200.628906 513.078125 C 213.066406 525.386719 226.617188 536.328125 240.941406 545.863281 C 248.089844 550.648438 255.503906 554.980469 262.964844 559.140625 C 270.503906 563.164062 278.136719 566.957031 285.933594 570.335938 C 301.519531 577.074219 317.535156 582.730469 333.992188 586.261719 C 304.019531 571.25 276.332031 552.871094 251.953125 531.460938 " fill-opacity="1" fill-rule="nonzero"/><path fill="#040606" d="M 365.179688 595.980469 L 363.796875 595.289062 C 362.054688 595.839844 360.316406 596.410156 358.570312 596.9375 L 362.273438 597.734375 C 363.25 597.15625 364.214844 596.574219 365.179688 595.980469 " fill-opacity="1" fill-rule="nonzero"/><g clip-path="url(#af8e0e2b39)"><path fill="#961163" d="M 654.90625 458.972656 C 656.261719 458.941406 657.617188 458.84375 658.960938 458.84375 C 679.113281 458.84375 698.972656 462.796875 717.628906 469.933594 C 728.585938 474.175781 739.148438 479.496094 749.160156 485.671875 C 754.152344 488.777344 758.996094 492.121094 763.628906 495.667969 C 764.386719 496.246094 765.101562 496.851562 765.847656 497.4375 L 760.480469 504.847656 C 755.726562 511.089844 750.765625 517.214844 745.515625 523.089844 C 735.207031 535.027344 723.820312 546 711.902344 556.277344 C 699.90625 566.367188 687.054688 575.851562 673.734375 583.6875 C 660.429688 591.570312 646.15625 597.847656 631.238281 602.546875 C 616.304688 607.179688 600.757812 610.339844 584.886719 612 C 575.398438 612.980469 565.796875 613.441406 556.136719 613.441406 C 549.640625 613.441406 543.117188 613.238281 536.582031 612.839844 C 507.648438 610.980469 478.566406 605.550781 450.003906 596.933594 L 446.285156 597.726562 C 458.539062 604.949219 471.507812 611.050781 484.855469 616.308594 C 492.789062 619.433594 500.898438 622.140625 509.113281 624.628906 C 517.359375 626.960938 525.699219 629.136719 534.171875 630.808594 C 551.113281 634.183594 568.503906 636.023438 586.078125 636.113281 C 603.636719 636.023438 621.375 634.210938 638.773438 630.171875 C 656.21875 626.300781 673.140625 619.8125 689.175781 611.664062 C 705.078125 603.253906 719.941406 593.796875 733.792969 582.699219 C 747.6875 571.746094 760.363281 559.371094 772.035156 546.164062 C 777.832031 539.519531 783.3125 532.601562 788.585938 525.5 C 791.183594 521.910156 793.746094 518.289062 796.160156 514.523438 L 799.757812 508.804688 C 800.96875 506.785156 802.027344 505.035156 803.390625 502.539062 L 809.636719 491.128906 L 800.492188 482.304688 C 799.472656 481.320312 798.917969 480.832031 798.171875 480.164062 L 796.089844 478.351562 C 794.710938 477.167969 793.332031 476.050781 791.945312 474.9375 C 789.171875 472.742188 786.382812 470.628906 783.519531 468.625 C 777.796875 464.636719 771.910156 460.953125 765.863281 457.550781 C 753.792969 450.726562 741.003906 445.152344 727.71875 441.007812 C 710.402344 435.492188 692.148438 432.671875 673.992188 432.671875 C 671.414062 432.671875 668.851562 432.855469 666.28125 432.972656 C 666.027344 433.667969 665.796875 434.316406 665.53125 435.035156 C 662.382812 443.464844 658.777344 451.449219 654.90625 458.972656 " fill-opacity="1" fill-rule="nonzero"/></g><path fill="#040606" d="M 439.429688 593.609375 C 440.71875 594.4375 442.066406 595.179688 443.371094 595.976562 L 444.761719 595.285156 C 442.984375 594.722656 441.203125 594.195312 439.429688 593.609375 " fill-opacity="1" fill-rule="nonzero"/><path fill="#d61362" d="M 676.171875 318.5625 C 675.550781 309.78125 674.511719 301.03125 673.199219 292.296875 C 672.484375 287.929688 671.722656 283.566406 670.753906 279.203125 L 669.238281 272.628906 C 668.660156 270.347656 668.164062 268.367188 667.355469 265.636719 L 663.667969 253.171875 L 650.933594 253.371094 C 649.519531 253.390625 648.78125 253.4375 647.777344 253.488281 L 645.011719 253.675781 C 643.199219 253.808594 641.429688 253.988281 639.664062 254.179688 C 636.140625 254.578125 632.664062 255.046875 629.222656 255.648438 C 622.339844 256.851562 615.5625 258.394531 608.871094 260.246094 C 595.484375 263.921875 582.484375 268.976562 570.148438 275.398438 C 547.746094 286.890625 527.796875 303.320312 512.394531 322.988281 C 512.582031 323.390625 512.777344 323.789062 512.960938 324.191406 C 515.554688 329.929688 517.582031 334.75 519.347656 339.375 C 520.554688 342.558594 521.65625 345.882812 522.707031 349.230469 C 524.089844 347.523438 525.457031 345.804688 526.914062 344.164062 C 542.550781 326.25 562.082031 312.464844 583.558594 302.960938 C 594.316406 298.238281 605.5625 294.566406 617.027344 291.890625 C 622.765625 290.570312 628.566406 289.527344 634.359375 288.773438 C 635.308594 288.652344 636.242188 288.574219 637.1875 288.457031 L 638.65625 297.476562 C 639.722656 305.242188 640.566406 313.0625 641.027344 320.914062 C 642.21875 336.609375 641.957031 352.382812 640.835938 368.042969 C 639.515625 383.621094 637.167969 399.375 633.308594 414.296875 C 631.101562 422.96875 628.203125 431.464844 624.8125 439.792969 C 622.359375 445.8125 619.683594 451.75 616.660156 457.550781 C 615.246094 460.234375 613.722656 462.875 612.195312 465.511719 C 605.886719 476.417969 598.683594 486.917969 590.59375 496.859375 C 580.539062 509.203125 569.222656 520.722656 557.035156 531.460938 C 532.5625 552.871094 504.769531 571.242188 474.679688 586.257812 C 491.203125 582.722656 507.28125 577.070312 522.921875 570.328125 C 530.753906 566.953125 538.414062 563.15625 545.984375 559.136719 C 553.472656 554.976562 560.914062 550.648438 568.09375 545.859375 C 582.472656 536.324219 596.074219 525.382812 608.5625 513.074219 C 620.914062 500.652344 632.171875 486.878906 641.605469 471.773438 C 643.078125 469.46875 644.375 467.046875 645.742188 464.671875 C 646.269531 463.75 646.832031 462.847656 647.34375 461.917969 C 647.859375 460.992188 648.445312 460.109375 648.945312 459.171875 C 653.402344 450.808594 657.257812 442.105469 660.589844 433.191406 C 660.921875 432.304688 661.210938 431.40625 661.527344 430.515625 C 661.851562 429.628906 662.15625 428.730469 662.46875 427.839844 C 663.015625 426.292969 663.59375 424.761719 664.101562 423.207031 C 669.371094 406.066406 673.167969 388.914062 675.078125 371.316406 C 677.128906 353.789062 677.296875 336.117188 676.171875 318.5625 " fill-opacity="1" fill-rule="nonzero"/><path fill="#040606" d="M 444.761719 595.285156 L 443.371094 595.976562 C 444.339844 596.570312 445.308594 597.152344 446.285156 597.726562 L 450.003906 596.933594 C 448.25 596.40625 446.511719 595.835938 444.761719 595.285156 " fill-opacity="1" fill-rule="nonzero"/><g clip-path="url(#d8bb82436b)"><path fill="#ed1583" d="M 523.234375 381.816406 L 522.816406 375.035156 C 522.722656 373.527344 522.480469 371.847656 522.242188 370.183594 L 521.917969 367.828125 C 521.519531 365.464844 521.019531 363.039062 520.429688 360.546875 C 519.800781 357.914062 519.070312 355.199219 518.210938 352.375 C 517.054688 348.582031 515.78125 344.84375 514.417969 341.257812 C 512.691406 336.738281 510.703125 332.003906 508.15625 326.367188 C 507.527344 324.980469 506.867188 323.628906 506.230469 322.253906 C 505.410156 320.480469 504.609375 318.683594 503.746094 316.941406 C 497.042969 303.417969 489.082031 289.539062 477.9375 271.9375 C 469.554688 258.933594 459.996094 245.132812 448.730469 229.761719 C 437.476562 214.75 427.363281 201.925781 416.925781 189.40625 L 404.195312 174.152344 L 391.429688 189.410156 C 381.261719 201.558594 371.148438 214.382812 359.597656 229.769531 C 348.949219 244.226562 339.382812 258.03125 330.367188 271.9375 C 319.34375 289.332031 311.378906 303.21875 304.558594 316.925781 C 303.742188 318.5625 303.035156 320.207031 302.257812 321.847656 C 301.832031 322.75 301.410156 323.648438 300.996094 324.546875 C 298.429688 330.136719 295.996094 335.726562 293.890625 341.242188 C 291.75 346.886719 290.117188 351.9375 288.816406 356.792969 C 288.527344 357.882812 288.253906 358.960938 288 360.03125 C 287.367188 362.671875 286.804688 365.292969 286.367188 367.917969 L 286.054688 370.183594 C 285.816406 371.847656 285.570312 373.527344 285.480469 375.035156 L 285.0625 381.863281 C 284.9375 383.394531 284.933594 384.867188 284.929688 386.34375 L 284.894531 389.960938 C 284.875 391.703125 284.851562 393.4375 284.980469 395.175781 C 285.207031 403.296875 286.136719 411.753906 287.90625 421.921875 C 291.230469 439.300781 296.9375 456.050781 304.855469 471.667969 C 312.539062 486.949219 322.144531 501.378906 333.40625 514.574219 C 338.855469 520.902344 344.773438 527.113281 350.976562 533.042969 C 352.136719 534.105469 353.382812 535.238281 354.710938 536.410156 C 338.816406 513.789062 326.800781 490.195312 318.894531 466.054688 C 316.429688 458.679688 314.359375 450.808594 312.75 442.691406 C 311.023438 433.996094 309.976562 426.261719 309.554688 419.0625 C 308.96875 409.863281 308.953125 402.378906 309.503906 395.519531 L 309.738281 393.199219 C 309.992188 390.109375 310.261719 387.011719 310.660156 383.941406 L 311.515625 378.210938 C 311.699219 376.992188 311.933594 375.949219 312.171875 374.914062 C 312.308594 374.304688 312.445312 373.707031 312.566406 373.0625 C 313.59375 369.082031 314.917969 364.992188 316.667969 360.390625 C 320.09375 351.425781 324.792969 341.667969 331.039062 330.582031 C 338.660156 317.125 347.429688 303.269531 357.105469 289.375 C 365.945312 276.46875 375.730469 263.046875 386.167969 249.507812 C 391.375 242.660156 396.730469 235.785156 402.140625 229.007812 L 404.195312 226.4375 L 406.257812 229.007812 C 407.417969 230.453125 408.554688 231.917969 409.691406 233.390625 L 414.21875 239.167969 C 416.929688 242.617188 419.640625 246.066406 422.269531 249.53125 C 433.496094 264.164062 443 277.222656 451.3125 289.425781 C 461.117188 303.503906 469.882812 317.367188 477.351562 330.601562 C 486.652344 347.089844 492.679688 360.933594 495.773438 372.910156 C 495.933594 373.707031 496.070312 374.3125 496.210938 374.914062 C 496.449219 375.949219 496.6875 377.003906 496.867188 378.21875 L 497.71875 383.894531 C 498.234375 387.785156 498.589844 391.660156 498.875 395.546875 C 499.429688 402.375 499.417969 409.859375 498.832031 419.0625 C 497.746094 434.71875 494.605469 450.519531 489.5 466.042969 C 481.625 490.097656 469.667969 513.625 453.859375 536.203125 C 455.113281 535.085938 456.292969 534.003906 457.402344 532.996094 C 463.535156 527.132812 469.445312 520.910156 474.925781 514.546875 C 486.15625 501.390625 495.753906 486.957031 503.453125 471.660156 C 511.367188 456.035156 517.070312 439.285156 520.40625 421.878906 C 522.164062 411.75 523.085938 403.289062 523.304688 395.296875 C 523.476562 391.367188 523.453125 387.21875 523.234375 381.816406 " fill-opacity="1" fill-rule="nonzero"/></g></svg>