<svg xmlns="http://www.w3.org/2000/svg" xmlns:xlink="http://www.w3.org/1999/xlink" width="1080" zoomAndPan="magnify" viewBox="0 0 810 809.999993" height="1080" preserveAspectRatio="xMidYMid meet" version="1.0"><defs><clipPath id="0ecefb704d"><path d="M 16.199219 192 L 641 192 L 641 810 L 16.199219 810 Z M 16.199219 192 " clip-rule="nonzero"/></clipPath></defs><path fill="#ff9292" d="M 272.082031 153.96875 L 672.328125 554.136719 C 675.191406 541.839844 677.378906 529.378906 678.894531 516.746094 L 309.476562 147.402344 C 296.675781 148.917969 284.210938 151.105469 272.082031 153.96875 Z M 272.082031 153.96875 " fill-opacity="1" fill-rule="nonzero"/><g clip-path="url(#0ecefb704d)"><path fill="#ff9292" d="M 621.117188 634.808594 L 178.253906 192.03125 C 169.15625 197.421875 160.394531 203.316406 151.804688 209.546875 L 586.246094 643.90625 C 592.3125 649.96875 592.3125 659.734375 586.246094 665.96875 C 583.214844 669 579.171875 670.515625 575.296875 670.515625 C 571.253906 670.515625 567.378906 669 564.347656 665.96875 L 128.054688 229.757812 C 127.882812 229.589844 127.714844 229.421875 127.546875 229.253906 C 59.15625 290.222656 16.199219 378.8125 16.199219 477.503906 C 16.199219 661.082031 165.113281 809.96875 348.726562 809.96875 C 474.5625 809.96875 584.226562 740.074219 640.65625 636.832031 C 638.128906 638.515625 635.097656 639.355469 632.066406 639.355469 C 628.191406 639.355469 624.148438 637.839844 621.117188 634.808594 Z M 319.585938 663.273438 C 316.550781 666.304688 312.507812 667.820312 308.636719 667.820312 C 304.761719 667.820312 300.71875 666.304688 297.6875 663.273438 L 130.75 496.367188 C 124.683594 490.304688 124.683594 480.535156 130.75 474.304688 C 136.8125 468.242188 146.582031 468.242188 152.816406 474.304688 L 319.753906 641.210938 C 325.648438 647.273438 325.648438 657.042969 319.585938 663.273438 Z M 436.15625 691.734375 C 433.121094 694.765625 429.078125 696.285156 425.207031 696.285156 C 421.164062 696.285156 417.289062 694.765625 414.253906 691.734375 L 102.109375 379.820312 C 96.046875 373.757812 96.046875 363.988281 102.109375 357.757812 C 108.175781 351.695312 117.945312 351.695312 124.179688 357.757812 L 436.15625 669.671875 C 442.21875 675.90625 442.21875 685.671875 436.15625 691.734375 Z M 518.695312 686.347656 C 515.664062 689.378906 511.621094 690.894531 507.746094 690.894531 C 503.871094 690.894531 499.828125 689.378906 496.796875 686.347656 L 107.5 297.125 C 101.4375 291.0625 101.4375 281.296875 107.5 275.0625 C 113.566406 269 123.335938 269 129.570312 275.0625 L 518.867188 664.285156 C 524.929688 670.515625 524.929688 680.285156 518.695312 686.347656 Z M 518.695312 686.347656 " fill-opacity="1" fill-rule="nonzero"/></g><path fill="#ff9292" d="M 351.085938 145.042969 L 681.253906 475.148438 C 681.085938 458.980469 679.90625 442.980469 677.546875 427.484375 L 398.757812 148.75 C 383.261719 146.390625 367.257812 145.210938 351.085938 145.042969 Z M 351.085938 145.042969 " fill-opacity="1" fill-rule="nonzero"/><path fill="#ff9292" d="M 206.890625 176.707031 L 643.183594 612.914062 C 646.046875 615.777344 647.5625 619.652344 647.730469 623.355469 C 653.292969 611.90625 658.175781 600.285156 662.554688 588.15625 L 238.054688 163.90625 C 227.441406 167.609375 216.996094 171.988281 206.890625 176.707031 Z M 206.890625 176.707031 " fill-opacity="1" fill-rule="nonzero"/><path fill="#ff9292" d="M 457.042969 163.0625 L 663.230469 369.210938 C 651.101562 334.011719 633.246094 301.503906 610.839844 272.875 L 553.566406 215.609375 C 524.761719 193.042969 492.25 175.191406 457.042969 163.0625 Z M 457.042969 163.0625 " fill-opacity="1" fill-rule="nonzero"/><path fill="#ffffff" d="M 152.816406 474.304688 C 146.75 468.242188 136.980469 468.242188 130.75 474.304688 C 124.683594 480.367188 124.683594 490.136719 130.75 496.367188 L 297.6875 663.273438 C 300.71875 666.304688 304.761719 667.820312 308.636719 667.820312 C 312.507812 667.820312 316.550781 666.304688 319.585938 663.273438 C 325.648438 657.210938 325.648438 647.441406 319.585938 641.210938 Z M 152.816406 474.304688 " fill-opacity="1" fill-rule="nonzero"/><path fill="#ffffff" d="M 124.179688 357.757812 C 118.113281 351.695312 108.34375 351.695312 102.109375 357.757812 C 96.046875 363.820312 96.046875 373.589844 102.109375 379.820312 L 414.085938 691.734375 C 417.121094 694.765625 421.164062 696.285156 425.035156 696.285156 C 429.078125 696.285156 432.953125 694.765625 435.984375 691.734375 C 442.050781 685.671875 442.050781 675.90625 435.984375 669.671875 Z M 124.179688 357.757812 " fill-opacity="1" fill-rule="nonzero"/><path fill="#ffffff" d="M 129.402344 275.230469 C 123.335938 269.167969 113.566406 269.167969 107.332031 275.230469 C 101.269531 281.296875 101.269531 291.0625 107.332031 297.296875 L 496.628906 686.515625 C 499.660156 689.546875 503.703125 691.0625 507.578125 691.0625 C 511.453125 691.0625 515.496094 689.546875 518.527344 686.515625 C 524.59375 680.453125 524.59375 670.683594 518.527344 664.453125 Z M 129.402344 275.230469 " fill-opacity="1" fill-rule="nonzero"/><path fill="#ffffff" d="M 564.179688 665.96875 C 567.210938 669 571.253906 670.515625 575.128906 670.515625 C 579.171875 670.515625 583.046875 669 586.078125 665.96875 C 592.140625 659.90625 592.140625 650.136719 586.078125 643.90625 L 151.804688 209.546875 L 149.953125 207.695312 C 143.886719 201.632812 134.117188 201.632812 127.882812 207.695312 C 121.988281 213.589844 121.820312 223.023438 127.378906 229.253906 C 127.546875 229.421875 127.714844 229.589844 127.882812 229.757812 Z M 564.179688 665.96875 " fill-opacity="1" fill-rule="nonzero"/><path fill="#ffffff" d="M 206.890625 176.707031 L 181.117188 150.9375 C 175.050781 144.875 165.28125 144.875 159.046875 150.9375 C 152.984375 157 152.984375 166.769531 159.046875 173 L 178.253906 192.199219 L 621.117188 634.808594 C 624.148438 637.839844 628.191406 639.355469 632.066406 639.355469 C 635.097656 639.355469 637.960938 638.515625 640.65625 636.832031 C 641.5 636.324219 642.339844 635.652344 643.183594 634.808594 C 646.382812 631.609375 647.902344 627.398438 647.730469 623.355469 C 647.5625 619.484375 646.046875 615.777344 643.183594 612.914062 Z M 206.890625 176.707031 " fill-opacity="1" fill-rule="nonzero"/><path fill="#ffffff" d="M 220.871094 102.769531 C 214.808594 96.707031 205.035156 96.707031 198.804688 102.769531 C 192.738281 108.832031 192.738281 118.601562 198.804688 124.832031 L 237.886719 163.90625 L 662.21875 588.15625 L 669.125 595.0625 C 672.15625 598.09375 676.199219 599.609375 680.074219 599.609375 C 684.117188 599.609375 687.992188 598.09375 691.023438 595.0625 C 697.089844 589 697.089844 579.230469 691.023438 573 L 672.15625 554.136719 L 272.082031 153.96875 Z M 220.871094 102.769531 " fill-opacity="1" fill-rule="nonzero"/><path fill="#ffffff" d="M 269.046875 63.023438 C 262.984375 56.957031 253.214844 56.957031 246.980469 63.023438 C 240.917969 69.085938 240.917969 78.855469 246.980469 85.085938 L 309.308594 147.402344 L 678.894531 516.914062 L 709.050781 547.0625 C 712.082031 550.09375 716.125 551.609375 720 551.609375 C 724.042969 551.609375 727.917969 550.09375 730.949219 547.0625 C 737.011719 541 737.011719 531.230469 730.949219 525 L 681.085938 475.148438 L 350.917969 145.042969 Z M 269.046875 63.023438 " fill-opacity="1" fill-rule="nonzero"/><path fill="#ffffff" d="M 325.816406 31.863281 C 319.753906 25.800781 309.984375 25.800781 303.75 31.863281 C 297.6875 37.925781 297.6875 47.695312 303.75 53.925781 L 398.589844 148.75 L 677.378906 427.484375 L 740.042969 490.136719 C 743.078125 493.167969 747.121094 494.683594 750.996094 494.683594 C 755.039062 494.683594 758.910156 493.167969 761.945312 490.136719 C 768.007812 484.074219 768.007812 474.304688 761.945312 468.074219 L 663.0625 369.210938 L 457.042969 163.0625 Z M 325.816406 31.863281 " fill-opacity="1" fill-rule="nonzero"/><path fill="#ffffff" d="M 393.367188 11.484375 C 387.304688 5.421875 377.53125 5.421875 371.300781 11.484375 C 365.234375 17.546875 365.234375 27.316406 371.300781 33.546875 L 553.566406 215.609375 L 610.839844 272.875 L 760.765625 422.769531 C 763.796875 425.800781 767.839844 427.316406 771.714844 427.316406 C 775.757812 427.316406 779.632812 425.800781 782.664062 422.769531 C 788.726562 416.707031 788.726562 406.9375 782.664062 400.707031 Z M 393.367188 11.484375 " fill-opacity="1" fill-rule="nonzero"/><path fill="#ffffff" d="M 475.910156 6.097656 C 469.84375 0.03125 460.074219 0.03125 453.84375 6.097656 C 447.777344 12.160156 447.777344 21.925781 453.84375 28.160156 L 765.988281 340.074219 C 769.019531 343.105469 773.0625 344.621094 776.9375 344.621094 C 780.808594 344.621094 784.851562 343.105469 787.886719 340.074219 C 793.949219 334.011719 793.949219 324.242188 787.886719 318.011719 Z M 475.910156 6.097656 " fill-opacity="1" fill-rule="nonzero"/><path fill="#ffffff" d="M 748.46875 228.074219 C 752.511719 228.074219 756.386719 226.558594 759.417969 223.527344 C 765.480469 217.464844 765.480469 207.695312 759.417969 201.464844 L 592.480469 34.558594 C 586.414062 28.496094 576.644531 28.496094 570.410156 34.558594 C 564.347656 40.621094 564.347656 50.390625 570.410156 56.621094 L 737.347656 223.527344 C 740.382812 226.558594 744.425781 228.074219 748.46875 228.074219 Z M 748.46875 228.074219 " fill-opacity="1" fill-rule="nonzero"/></svg>