<svg xmlns="http://www.w3.org/2000/svg" xmlns:xlink="http://www.w3.org/1999/xlink" width="1080" zoomAndPan="magnify" viewBox="0 0 810 809.999993" height="1080" preserveAspectRatio="xMidYMid meet" version="1.0"><path fill="#f69ee8" d="M 545.140625 543.417969 C 541.269531 495.246094 509.519531 470.105469 482.0625 467.421875 C 477.550781 466.984375 473.332031 466.769531 469.367188 466.769531 C 437.648438 466.769531 422.421875 480.476562 405 501.242188 C 387.578125 480.476562 372.363281 466.769531 340.640625 466.769531 C 336.679688 466.769531 332.457031 466.984375 327.945312 467.421875 C 300.488281 470.105469 268.738281 495.246094 264.859375 543.417969 L 264.859375 559.449219 C 268.460938 605.554688 303.277344 662.429688 405 733.785156 C 506.730469 662.429688 541.53125 605.554688 545.140625 559.449219 Z M 676.839844 642.824219 C 682.300781 669.449219 681.136719 695.652344 670.210938 720.863281 C 656.722656 752.019531 633.261719 772.066406 600.777344 781.578125 C 584.335938 786.414062 567.472656 787.292969 550.433594 785.878906 C 532.636719 784.417969 515.617188 779.785156 498.710938 774.371094 C 483.433594 769.460938 467.738281 766.347656 451.761719 764.488281 C 439.667969 763.066406 427.554688 762.210938 415.375 762.28125 C 411.90625 762.28125 408.460938 762.347656 405 762.488281 C 401.539062 762.347656 398.09375 762.28125 394.625 762.28125 C 382.445312 762.210938 370.332031 763.066406 358.238281 764.488281 C 342.261719 766.347656 326.566406 769.460938 311.289062 774.371094 C 294.382812 779.785156 277.359375 784.417969 259.574219 785.878906 C 242.527344 787.292969 225.664062 786.414062 209.222656 781.578125 C 176.738281 772.066406 153.277344 752.019531 139.789062 720.863281 C 128.863281 695.652344 127.699219 669.449219 133.160156 642.824219 C 138.582031 616.363281 150.183594 592.757812 166.8125 571.527344 C 175.226562 560.757812 185.160156 551.480469 194.855469 541.96875 C 227.132812 510.25 255.476562 475.375 278.914062 436.605469 C 290.222656 417.886719 303.3125 400.609375 319.074219 385.449219 C 330.914062 374.078125 343.800781 364.195312 358.558594 356.894531 C 372.210938 350.125 386.652344 346.335938 401.859375 346.199219 C 402.902344 346.199219 403.953125 346.199219 405 346.21875 C 406.042969 346.199219 407.097656 346.199219 408.140625 346.199219 C 423.347656 346.335938 437.789062 350.125 451.433594 356.894531 C 466.199219 364.195312 479.085938 374.078125 490.917969 385.449219 C 506.6875 400.609375 519.777344 417.886719 531.082031 436.605469 C 554.519531 475.375 582.867188 510.25 615.144531 541.96875 C 624.839844 551.480469 634.773438 560.757812 643.1875 571.527344 C 659.816406 592.757812 671.417969 616.363281 676.839844 642.824219 Z M 799.214844 270.09375 C 793.550781 253.851562 785.191406 239.273438 772.21875 227.667969 C 761.480469 218.070312 748.945312 212.304688 734.628906 210.824219 C 720.585938 209.375 707.070312 211.832031 694.070312 217.257812 C 673.332031 225.917969 656.382812 239.675781 641.671875 256.390625 C 624.996094 275.335938 612.496094 296.820312 603.355469 320.289062 C 591.976562 349.484375 585.53125 379.679688 585.273438 411.089844 C 585.214844 424.46875 586.363281 437.71875 589.523438 450.742188 C 592.875 464.597656 598.074219 477.625 607.316406 488.699219 C 615.390625 498.378906 625.171875 505.542969 637.863281 507.929688 C 647.808594 509.796875 657.714844 508.996094 667.535156 506.996094 C 684.957031 503.453125 701.019531 496.441406 716.089844 487.15625 C 746.972656 468.132812 771.355469 442.929688 787.683594 410.382812 C 798.832031 388.167969 804.992188 364.484375 807.113281 339.746094 C 809.148438 315.996094 807.089844 292.703125 799.214844 270.09375 Z M 440.363281 266.742188 C 447.027344 283.304688 456.210938 298.179688 470.261719 309.550781 C 486.992188 323.105469 505.996094 328.226562 527.269531 324.128906 C 542.90625 321.113281 556.363281 313.625 568.503906 303.617188 C 584.921875 290.070312 597.410156 273.339844 607.257812 254.609375 C 624.253906 222.273438 632.28125 187.679688 632.796875 149.84375 C 632.40625 143.769531 632.335938 136.265625 631.523438 128.789062 C 629.699219 111.949219 625.796875 95.671875 618.960938 80.15625 C 612.730469 66.027344 604.4375 53.28125 592.574219 43.195312 C 575.257812 28.472656 555.429688 22.800781 532.980469 27.417969 C 520.226562 30.035156 508.832031 35.730469 498.382812 43.378906 C 479.738281 57.027344 465.773438 74.699219 454.992188 94.910156 C 434.433594 133.453125 425.960938 174.597656 429.285156 218.152344 C 430.5625 234.894531 434.085938 251.144531 440.363281 266.742188 Z M 241.5 303.617188 C 253.636719 313.625 267.09375 321.113281 282.730469 324.128906 C 304.003906 328.226562 323.007812 323.105469 339.738281 309.550781 C 353.789062 298.179688 362.972656 283.304688 369.636719 266.742188 C 375.914062 251.144531 379.4375 234.894531 380.714844 218.152344 C 384.039062 174.597656 375.566406 133.453125 355.007812 94.910156 C 344.226562 74.699219 330.257812 57.027344 311.617188 43.378906 C 301.167969 35.730469 289.773438 30.035156 277.019531 27.417969 C 254.574219 22.800781 234.742188 28.472656 217.425781 43.195312 C 205.558594 53.28125 197.269531 66.027344 191.039062 80.15625 C 184.203125 95.671875 180.300781 111.949219 178.476562 128.789062 C 177.664062 136.265625 177.59375 143.769531 177.203125 149.84375 C 177.71875 187.679688 185.746094 222.273438 202.742188 254.609375 C 212.585938 273.339844 225.078125 290.070312 241.5 303.617188 Z M 142.472656 506.996094 C 125.042969 503.453125 108.980469 496.441406 93.910156 487.15625 C 63.035156 468.132812 38.652344 442.929688 22.316406 410.382812 C 11.167969 388.167969 5.007812 364.484375 2.886719 339.746094 C 0.859375 315.996094 2.910156 292.703125 10.792969 270.09375 C 16.449219 253.851562 24.808594 239.273438 37.78125 227.667969 C 48.519531 218.070312 61.050781 212.304688 75.378906 210.824219 C 89.414062 209.375 102.929688 211.832031 115.925781 217.257812 C 136.667969 225.917969 153.617188 239.675781 168.328125 256.390625 C 185.003906 275.335938 197.503906 296.820312 206.644531 320.289062 C 218.023438 349.484375 224.46875 379.679688 224.726562 411.089844 C 224.785156 424.46875 223.636719 437.71875 220.476562 450.742188 C 217.125 464.597656 211.925781 477.625 202.683594 488.699219 C 194.609375 498.378906 184.828125 505.542969 172.136719 507.929688 C 162.191406 509.796875 152.285156 508.996094 142.472656 506.996094 " fill-opacity="1" fill-rule="nonzero"/></svg>