<svg xmlns="http://www.w3.org/2000/svg" xmlns:xlink="http://www.w3.org/1999/xlink" width="500" zoomAndPan="magnify" viewBox="0 0 375 374.999991" height="500" preserveAspectRatio="xMidYMid meet" version="1.0"><path fill="#ff6978" d="M 0 186.628906 C 12.5 194.855469 25 203.082031 37.5 213.21875 C 50 223.355469 62.5 235.402344 75 243.980469 C 87.5 252.554688 100 257.65625 112.5 253.648438 C 125 249.640625 137.5 236.523438 150 229.476562 C 162.5 222.433594 175 221.460938 187.5 221.128906 C 200 220.792969 212.5 221.097656 225 226.179688 C 237.5 231.265625 250 241.125 262.5 248.8125 C 275 256.5 287.5 262.011719 300 259.800781 C 312.5 257.585938 325 247.648438 337.5 244.636719 C 350 241.628906 362.5 245.550781 375 249.472656 L 375 375.816406 L 0 375.816406 Z M 0 186.628906 " fill-opacity="1" fill-rule="nonzero"/></svg>