<svg xmlns="http://www.w3.org/2000/svg" xmlns:xlink="http://www.w3.org/1999/xlink" width="1080" zoomAndPan="magnify" viewBox="0 0 810 809.999993" height="1080" preserveAspectRatio="xMidYMid meet" version="1.0"><path fill="#000000" d="M 407.792969 716.820312 C 407.667969 715.824219 408.203125 715.144531 408.804688 714.425781 C 410.628906 712.273438 412.542969 710.167969 414.148438 707.859375 C 415.40625 706.050781 416.433594 706.238281 418.148438 707.234375 C 438.5 719.128906 458.867188 731.015625 479.304688 742.753906 C 486.726562 747.011719 494.417969 750.75 502.605469 753.402344 C 514.371094 757.207031 524.371094 754.398438 533.253906 746.054688 C 542.039062 737.808594 548.238281 727.929688 553.410156 717.132812 C 579.441406 662.816406 603.890625 607.796875 628.1875 552.703125 C 639.492188 527.070312 650.457031 501.292969 660.808594 475.265625 C 678.398438 431.058594 694.875 386.460938 707.035156 340.386719 C 711.402344 323.820312 713.867188 306.886719 716.214844 289.949219 C 718.394531 274.246094 719.835938 258.46875 720.398438 242.636719 C 720.929688 227.425781 720.84375 212.226562 719.648438 197.03125 C 718.144531 177.828125 715.148438 158.914062 709.757812 140.40625 C 704.195312 121.320312 696.113281 103.488281 684.789062 87 C 674.617188 72.199219 660.347656 64.539062 643.515625 60.703125 C 623.703125 56.183594 604.238281 58.378906 585.144531 64.65625 C 559.199219 73.179688 537.226562 88.195312 517.519531 106.742188 C 492.691406 130.117188 473.191406 157.636719 456.046875 186.90625 C 434.070312 224.421875 415.574219 263.65625 398.6875 303.667969 C 390.941406 322.019531 383.28125 340.402344 378.289062 359.761719 C 377.882812 361.335938 377.328125 362.90625 376.636719 364.378906 C 374.40625 369.050781 369.382812 369.644531 365.949219 365.785156 C 363.382812 362.90625 362.640625 359.347656 362.0625 355.753906 C 361.769531 353.890625 361.082031 352.296875 360.042969 350.753906 C 341.003906 322.441406 317.203125 298.839844 289.214844 279.425781 C 269.925781 266.042969 249.089844 255.855469 226.34375 249.742188 C 210.929688 245.597656 195.265625 243.515625 179.328125 244.429688 C 158.253906 245.636719 138.671875 251.644531 121.605469 264.386719 C 112.90625 270.878906 107.128906 279.964844 101.957031 289.324219 C 93.273438 305.054688 88.28125 322.011719 86.355469 339.84375 C 80.980469 389.441406 92.734375 435.207031 117.617188 477.949219 C 133.125 504.585938 153.4375 527.25 176.207031 547.8125 C 178.136719 549.550781 178.699219 550.6875 177.082031 553.074219 C 173.566406 558.277344 170.414062 563.722656 167.191406 569.113281 C 166.332031 570.546875 165.78125 571.101562 164.195312 569.773438 C 131.496094 542.421875 102.992188 511.511719 82.875 473.550781 C 70.121094 449.488281 61.5625 423.984375 57.3125 397.042969 C 54.878906 381.617188 53.664062 366.109375 54.167969 350.511719 C 55.136719 320.992188 60.550781 292.453125 74.347656 266.011719 C 91.011719 234.085938 116.535156 212.171875 150.234375 199.628906 C 172.433594 191.359375 195.421875 188.265625 218.933594 189.808594 C 274.550781 193.457031 317.109375 219.035156 346.136719 266.765625 C 356.96875 284.582031 363.96875 303.957031 369.070312 324.070312 C 369.359375 325.203125 369.476562 326.410156 370.316406 327.394531 C 371.089844 327.167969 371.035156 326.472656 371.152344 325.925781 C 378.789062 288.746094 388.023438 251.980469 399.40625 215.757812 C 409.234375 184.480469 420.660156 153.84375 436.238281 124.882812 C 452.949219 93.820312 473.871094 66.191406 501.929688 44.414062 C 528.582031 23.730469 558.410156 10.019531 591.796875 4.550781 C 617.0625 0.417969 642.140625 1.410156 666.480469 9.871094 C 700.117188 21.554688 723.84375 44.234375 738.644531 76.449219 C 746.691406 93.972656 751.0625 112.492188 753.511719 131.546875 C 756.40625 154.046875 756.390625 176.628906 754.914062 199.183594 C 752.222656 240.328125 744.875 280.769531 735.710938 320.90625 C 725.132812 367.226562 711.941406 412.816406 697.519531 458.0625 C 686.441406 492.808594 674.507812 527.25 661.839844 561.453125 C 649.679688 594.28125 637.046875 626.929688 624.125 659.460938 C 611.898438 690.222656 600.003906 721.117188 586.679688 751.429688 C 581.21875 763.851562 575.496094 776.144531 567.9375 787.484375 C 565.558594 791.058594 562.898438 794.410156 559.894531 797.484375 C 549.378906 808.234375 537.023438 809.628906 523.464844 804.496094 C 520.40625 803.34375 517.363281 802.078125 514.480469 800.550781 C 494.074219 789.722656 473.503906 779.226562 454.625 765.71875 C 436.925781 753.058594 418.804688 740.984375 400.800781 728.761719 C 398.742188 727.367188 398.601562 726.484375 400.285156 724.738281 C 402.175781 722.78125 403.773438 720.535156 405.527344 718.445312 C 406.152344 717.703125 406.628906 716.710938 407.855469 716.765625 C 409.734375 718.792969 412.222656 719.964844 414.476562 721.445312 C 442.613281 739.9375 470.484375 758.820312 498.980469 776.761719 C 500.851562 777.9375 502.761719 778.882812 505.007812 779.125 C 512.558594 779.945312 522.007812 774.085938 525.148438 766.574219 C 524.292969 766.316406 523.558594 766.746094 522.777344 766.941406 C 517.785156 768.21875 512.738281 768.539062 507.621094 767.808594 C 497.839844 766.402344 488.894531 762.644531 480.265625 758.050781 C 456.894531 745.601562 434.367188 731.6875 411.425781 718.488281 C 410.273438 717.84375 409.289062 716.757812 407.792969 716.820312 Z M 623.421875 45.304688 C 622.601562 44.929688 622.390625 44.789062 622.148438 44.726562 C 621.542969 44.546875 620.925781 44.382812 620.308594 44.242188 C 602.4375 40.226562 584.519531 40.375 566.648438 44.019531 C 532.171875 51.054688 503.738281 68.648438 480.046875 94.292969 C 459.570312 116.460938 445.203125 142.425781 433.609375 170.035156 C 421.871094 198.003906 412.886719 226.917969 404.492188 256.027344 C 404.304688 256.691406 403.695312 257.359375 404.453125 258.226562 C 404.929688 257.257812 405.363281 256.371094 405.792969 255.480469 C 409.945312 246.878906 414 238.230469 418.25 229.679688 C 432.214844 201.625 447.183594 174.140625 465.15625 148.390625 C 482.933594 122.933594 503.082031 99.675781 527.949219 80.800781 C 548.957031 64.859375 571.929688 53.066406 597.953125 47.769531 C 606.152344 46.117188 614.433594 45.21875 623.421875 45.304688 Z M 739.765625 213.246094 C 740.039062 213.246094 740.320312 213.246094 740.59375 213.246094 C 741.597656 205.074219 742.136719 196.84375 742.402344 188.628906 C 743.011719 169.601562 742.957031 150.578125 740.359375 131.648438 C 737.980469 114.253906 733.984375 97.304688 726.558594 81.332031 C 713.867188 54.046875 693.9375 34.269531 665.597656 23.449219 C 644.546875 15.410156 622.710938 13.894531 600.550781 16.507812 C 574.777344 19.550781 550.945312 28.332031 528.777344 41.734375 C 528.277344 42.027344 527.421875 42.097656 527.492188 43.019531 C 527.582031 43.035156 527.683594 43.089844 527.753906 43.058594 C 528.183594 42.910156 528.605469 42.761719 529.019531 42.574219 C 553.878906 31.273438 579.871094 26.40625 607.140625 28.910156 C 626.519531 30.6875 644.375 36.921875 660.886719 47.175781 C 668.828125 52.105469 675.449219 58.679688 682.851562 64.257812 C 700.925781 77.890625 713.820312 95.386719 722.832031 115.945312 C 734.21875 141.925781 738.753906 169.335938 739.742188 197.460938 C 739.921875 202.722656 739.765625 207.988281 739.765625 213.246094 Z M 73.101562 308.449219 C 73.515625 307.550781 73.9375 306.664062 74.324219 305.757812 C 76.707031 300.25 79.25 294.824219 82.132812 289.550781 C 91.285156 272.804688 105.027344 260.160156 119.398438 248.1875 C 143.203125 228.363281 171.292969 219.742188 201.777344 218.199219 C 226.867188 216.917969 250.835938 221.800781 273.628906 232.378906 C 297.953125 243.664062 318.515625 259.972656 336.464844 279.722656 C 337.507812 280.875 338.554688 282.023438 339.605469 283.175781 C 339.800781 282.382812 339.621094 281.882812 339.378906 281.421875 C 324.402344 252.664062 302.835938 230.5 273.449219 216.476562 C 248.269531 204.457031 221.515625 200.992188 193.902344 203.238281 C 173.230469 204.925781 153.671875 210.5 135.550781 220.695312 C 101.058594 240.101562 81.785156 270.472656 73.101562 308.449219 Z M 520.757812 789.070312 C 524.769531 791.207031 528.582031 792.640625 532.5625 793.664062 C 539.332031 795.410156 545.121094 793.726562 550.074219 788.828125 C 553.925781 785.019531 557.015625 780.636719 559.785156 776.019531 C 567.992188 762.324219 574.324219 747.714844 580.464844 733.027344 C 592.625 703.921875 604.144531 674.546875 615.761719 645.21875 C 626.707031 617.585938 637.3125 589.820312 647.8125 562.015625 C 649.023438 558.816406 650.097656 555.578125 651.246094 552.359375 C 650.628906 552.664062 650.363281 553.105469 650.160156 553.582031 C 638.859375 579.625 627.273438 605.542969 615.097656 631.1875 C 601.402344 660.039062 587.539062 688.8125 571.210938 716.289062 C 563.363281 729.503906 555.113281 742.457031 547.78125 755.992188 C 540.960938 768.546875 533.542969 780.832031 520.757812 789.070312 Z M 200.007812 231.558594 C 255.921875 237.722656 300.277344 265.894531 339.347656 304.277344 C 339.253906 303.730469 339.0625 303.339844 338.804688 303.003906 C 322.203125 281.273438 302.609375 262.882812 278.597656 249.539062 C 254.160156 235.941406 228.011719 229.53125 200.007812 231.558594 Z M 200.007812 231.558594 " fill-opacity="1" fill-rule="nonzero"/><path fill="#000000" d="M 297.90625 585.710938 C 308.808594 585.96875 318.46875 589.375 327.507812 594.539062 C 336.953125 599.929688 347.03125 602.882812 357.828125 603.789062 C 365.175781 604.40625 372.53125 605.058594 379.8125 606.324219 C 394.320312 608.851562 407.722656 614.140625 419.40625 623.171875 C 430.757812 631.945312 436.792969 643.261719 433.664062 657.988281 C 431.027344 670.398438 423.921875 679.742188 413.09375 686.339844 C 404.421875 691.628906 394.75 693.71875 384.933594 695.433594 C 376.230469 696.957031 367.515625 698.421875 358.835938 700.058594 C 352.203125 701.316406 346.890625 704.753906 342.898438 710.246094 C 337.90625 717.101562 335.097656 725.042969 331.648438 732.667969 C 326.347656 744.410156 319.871094 755.367188 309.441406 763.339844 C 298.824219 771.449219 287.210938 775.285156 274.246094 769.351562 C 265.003906 765.125 259.222656 757.464844 255.414062 748.246094 C 251.304688 738.300781 251.226562 728.207031 254.628906 718.054688 C 255.609375 715.121094 256.5625 712.148438 257.847656 709.339844 C 262.824219 698.476562 263.433594 687.277344 261.140625 675.671875 C 258.941406 664.507812 255.765625 653.433594 255.789062 641.992188 C 255.828125 621.261719 263.230469 603.757812 280.191406 591.050781 C 285.464844 587.105469 291.71875 585.804688 297.90625 585.710938 Z M 297.90625 585.710938 " fill-opacity="1" fill-rule="nonzero"/><path fill="#000000" d="M 186.816406 585.429688 C 186.839844 581.675781 187.332031 577.988281 188.378906 574.375 C 192.535156 559.972656 205.671875 554.121094 219.136719 560.710938 C 227.054688 564.589844 233.019531 570.640625 237.714844 577.972656 C 245.351562 589.898438 249.347656 602.804688 247.792969 617.109375 C 247.421875 620.582031 246.359375 623.863281 244.863281 627.023438 C 240.039062 637.203125 229.625 641.414062 219.011719 637.539062 C 211.5 634.792969 205.671875 629.863281 200.679688 623.773438 C 192.152344 613.328125 186.730469 598.398438 186.816406 585.429688 Z M 186.816406 585.429688 " fill-opacity="1" fill-rule="nonzero"/><path fill="#000000" d="M 279.660156 576.234375 C 268.136719 575.59375 256.523438 569.324219 246.726562 559.394531 C 240.140625 552.726562 235.25 545.011719 233.863281 535.511719 C 231.921875 522.242188 240.0625 512.058594 253.496094 511.332031 C 267.015625 510.597656 278.324219 516.152344 288.292969 524.722656 C 295.457031 530.878906 301.007812 538.242188 303.738281 547.460938 C 303.792969 547.632812 303.847656 547.8125 303.902344 547.984375 C 308.5 563.996094 298.996094 576.46875 279.660156 576.234375 Z M 279.660156 576.234375 " fill-opacity="1" fill-rule="nonzero"/><path fill="#000000" d="M 368.773438 593.789062 C 349.582031 593.632812 328.375 578.613281 322.890625 561.289062 C 318.941406 548.824219 325.496094 537.890625 338.34375 535.675781 C 349.316406 533.78125 359.28125 536.945312 368.65625 542.3125 C 376.863281 547.007812 383.632812 553.261719 388.15625 561.703125 C 397.355469 578.847656 388.226562 593.945312 368.773438 593.789062 Z M 368.773438 593.789062 " fill-opacity="1" fill-rule="nonzero"/><path fill="#000000" d="M 240.34375 694.804688 C 240.234375 700.550781 239.417969 706.285156 236.484375 711.515625 C 233.253906 717.273438 228.019531 719.589844 221.929688 717.070312 C 201.832031 708.765625 188.792969 694.359375 185.171875 672.488281 C 183.898438 664.8125 185.257812 657.378906 190.046875 650.9375 C 196.542969 642.203125 206.695312 640.277344 215.914062 646.039062 C 222.503906 650.15625 227.089844 656.132812 230.851562 662.777344 C 236.460938 672.675781 240.085938 683.164062 240.34375 694.804688 Z M 240.34375 694.804688 " fill-opacity="1" fill-rule="nonzero"/></svg>