<svg xmlns="http://www.w3.org/2000/svg" xmlns:xlink="http://www.w3.org/1999/xlink" width="1080" zoomAndPan="magnify" viewBox="0 0 810 809.999993" height="1080" preserveAspectRatio="xMidYMid meet" version="1.0"><path fill="#211d1d" d="M 545.140625 543.289062 C 541.269531 495.128906 509.519531 469.996094 482.0625 467.3125 C 477.550781 466.875 473.332031 466.660156 469.367188 466.660156 C 437.648438 466.660156 422.421875 480.367188 405 501.125 C 387.578125 480.367188 372.363281 466.660156 340.640625 466.660156 C 336.679688 466.660156 332.457031 466.875 327.945312 467.3125 C 300.488281 469.996094 268.738281 495.128906 264.859375 543.289062 L 264.859375 559.316406 C 268.460938 605.410156 303.277344 662.273438 405 733.609375 C 506.730469 662.273438 541.53125 605.410156 545.140625 559.316406 Z M 676.839844 642.671875 C 682.300781 669.292969 681.136719 695.488281 670.210938 720.691406 C 656.722656 751.839844 633.261719 771.882812 600.777344 781.394531 C 584.335938 786.226562 567.472656 787.105469 550.433594 785.691406 C 532.636719 784.230469 515.617188 779.597656 498.710938 774.1875 C 483.433594 769.277344 467.738281 766.164062 451.761719 764.308594 C 439.667969 762.886719 427.554688 762.03125 415.375 762.097656 C 411.90625 762.097656 408.460938 762.167969 405 762.304688 C 401.539062 762.167969 398.09375 762.097656 394.625 762.097656 C 382.445312 762.03125 370.332031 762.886719 358.238281 764.308594 C 342.261719 766.164062 326.566406 769.277344 311.289062 774.1875 C 294.382812 779.597656 277.359375 784.230469 259.574219 785.691406 C 242.527344 787.105469 225.664062 786.226562 209.222656 781.394531 C 176.738281 771.882812 153.277344 751.839844 139.789062 720.691406 C 128.863281 695.488281 127.699219 669.292969 133.160156 642.671875 C 138.582031 616.214844 150.183594 592.617188 166.8125 571.390625 C 175.226562 560.625 185.160156 551.347656 194.855469 541.839844 C 227.132812 510.132812 255.476562 475.261719 278.914062 436.503906 C 290.222656 417.789062 303.3125 400.515625 319.074219 385.363281 C 330.914062 373.992188 343.800781 364.109375 358.558594 356.8125 C 372.210938 350.046875 386.652344 346.257812 401.859375 346.121094 C 402.902344 346.121094 403.953125 346.121094 405 346.136719 C 406.042969 346.121094 407.097656 346.121094 408.140625 346.121094 C 423.347656 346.257812 437.789062 350.046875 451.433594 356.8125 C 466.199219 364.109375 479.085938 373.992188 490.917969 385.363281 C 506.6875 400.515625 519.777344 417.789062 531.082031 436.503906 C 554.519531 475.261719 582.867188 510.132812 615.144531 541.839844 C 624.839844 551.347656 634.773438 560.625 643.1875 571.390625 C 659.816406 592.617188 671.417969 616.214844 676.839844 642.671875 Z M 799.214844 270.03125 C 793.550781 253.796875 785.191406 239.222656 772.21875 227.617188 C 761.480469 218.019531 748.945312 212.257812 734.628906 210.777344 C 720.585938 209.332031 707.070312 211.785156 694.070312 217.210938 C 673.332031 225.867188 656.382812 239.625 641.671875 256.332031 C 624.996094 275.273438 612.496094 296.75 603.355469 320.21875 C 591.976562 349.402344 585.53125 379.589844 585.273438 410.992188 C 585.214844 424.371094 586.363281 437.617188 589.523438 450.636719 C 592.875 464.488281 598.074219 477.515625 607.316406 488.585938 C 615.390625 498.261719 625.171875 505.425781 637.863281 507.808594 C 647.808594 509.679688 657.714844 508.878906 667.535156 506.878906 C 684.957031 503.335938 701.019531 496.324219 716.089844 487.042969 C 746.972656 468.023438 771.355469 442.828125 787.683594 410.289062 C 798.832031 388.082031 804.992188 364.398438 807.113281 339.667969 C 809.148438 315.925781 807.089844 292.636719 799.214844 270.03125 Z M 440.363281 266.683594 C 447.027344 283.242188 456.210938 298.109375 470.261719 309.480469 C 486.992188 323.03125 505.996094 328.152344 527.269531 324.054688 C 542.90625 321.042969 556.363281 313.554688 568.503906 303.546875 C 584.921875 290.003906 597.410156 273.277344 607.257812 254.550781 C 624.253906 222.226562 632.28125 187.640625 632.796875 149.8125 C 632.40625 143.738281 632.335938 136.238281 631.523438 128.761719 C 629.699219 111.929688 625.796875 95.65625 618.960938 80.144531 C 612.730469 66.015625 604.4375 53.273438 592.574219 43.191406 C 575.257812 28.472656 555.429688 22.800781 532.980469 27.414062 C 520.226562 30.035156 508.832031 35.726562 498.382812 43.375 C 479.738281 57.015625 465.773438 74.6875 454.992188 94.894531 C 434.433594 133.425781 425.960938 174.5625 429.285156 218.101562 C 430.5625 234.84375 434.085938 251.089844 440.363281 266.683594 Z M 241.5 303.546875 C 253.636719 313.554688 267.09375 321.042969 282.730469 324.054688 C 304.003906 328.152344 323.007812 323.03125 339.738281 309.480469 C 353.789062 298.109375 362.972656 283.242188 369.636719 266.683594 C 375.914062 251.089844 379.4375 234.84375 380.714844 218.101562 C 384.039062 174.5625 375.566406 133.425781 355.007812 94.894531 C 344.226562 74.6875 330.257812 57.015625 311.617188 43.375 C 301.167969 35.726562 289.773438 30.035156 277.019531 27.414062 C 254.574219 22.800781 234.742188 28.472656 217.425781 43.191406 C 205.558594 53.273438 197.269531 66.015625 191.039062 80.144531 C 184.203125 95.65625 180.300781 111.929688 178.476562 128.761719 C 177.664062 136.238281 177.59375 143.738281 177.203125 149.8125 C 177.71875 187.640625 185.746094 222.226562 202.742188 254.550781 C 212.585938 273.277344 225.078125 290.003906 241.5 303.546875 Z M 142.472656 506.878906 C 125.042969 503.335938 108.980469 496.324219 93.910156 487.042969 C 63.035156 468.023438 38.652344 442.828125 22.316406 410.289062 C 11.167969 388.082031 5.007812 364.398438 2.886719 339.667969 C 0.859375 315.925781 2.910156 292.636719 10.792969 270.03125 C 16.449219 253.796875 24.808594 239.222656 37.78125 227.617188 C 48.519531 218.019531 61.050781 212.257812 75.378906 210.777344 C 89.414062 209.332031 102.929688 211.785156 115.925781 217.210938 C 136.667969 225.867188 153.617188 239.625 168.328125 256.332031 C 185.003906 275.273438 197.503906 296.75 206.644531 320.21875 C 218.023438 349.402344 224.46875 379.589844 224.726562 410.992188 C 224.785156 424.371094 223.636719 437.617188 220.476562 450.636719 C 217.125 464.488281 211.925781 477.515625 202.683594 488.585938 C 194.609375 498.261719 184.828125 505.425781 172.136719 507.808594 C 162.191406 509.679688 152.285156 508.878906 142.472656 506.878906 " fill-opacity="1" fill-rule="nonzero"/></svg>