<svg xmlns="http://www.w3.org/2000/svg" xmlns:xlink="http://www.w3.org/1999/xlink" width="1080" zoomAndPan="magnify" viewBox="0 0 810 809.999993" height="1080" preserveAspectRatio="xMidYMid meet" version="1.0"><defs><clipPath id="8add60d874"><path d="M 1 217 L 704 217 L 704 597.375 L 1 597.375 Z M 1 217 " clip-rule="nonzero"/></clipPath></defs><g clip-path="url(#8add60d874)"><path fill="#000000" d="M 103.695312 589.269531 C 156.625 579.277344 233.070312 555.050781 296.640625 496.351562 C 298.957031 494.210938 301.21875 492.070312 303.421875 489.9375 C 367.964844 516.304688 448.40625 539.632812 529.328125 543.398438 C 539.273438 543.859375 548.636719 544.074219 557.484375 544.074219 C 687.128906 544.070312 702.628906 497.503906 703.261719 495.390625 C 703.546875 494.429688 703.003906 493.421875 702.046875 493.132812 C 701.082031 492.839844 700.074219 493.382812 699.777344 494.339844 C 699.613281 494.867188 681.726562 546.835938 529.5 539.761719 C 449.5625 536.042969 370.144531 513.164062 306.226562 487.195312 C 386.890625 407.464844 390.152344 332.605469 387.625 303.386719 C 384.839844 271.199219 371.777344 243.894531 353.535156 232.125 C 330.742188 217.417969 307.210938 213.46875 288.976562 221.296875 C 273.140625 228.09375 262.324219 242.828125 257.570312 264.015625 C 246.226562 253.308594 197.242188 212.566406 149.070312 255.882812 C 130.492188 272.585938 121.210938 293.363281 121.480469 317.636719 C 121.953125 359.71875 150.578125 399.113281 174.949219 420.0625 C 193.539062 436.042969 239.449219 463.449219 299.75 488.425781 C 297.929688 490.175781 296.070312 491.925781 294.171875 493.679688 C 231.269531 551.761719 155.566406 575.765625 103.132812 585.675781 C 46.246094 596.421875 3.699219 593.371094 3.285156 593.335938 C 2.242188 593.253906 1.40625 594.011719 1.332031 595.011719 C 1.253906 596.011719 2.003906 596.890625 3.007812 596.964844 C 3.164062 596.976562 9.007812 597.398438 19.167969 597.398438 C 36.769531 597.398438 67.335938 596.128906 103.695312 589.269531 Z M 177.320312 417.300781 C 153.523438 396.847656 125.574219 358.460938 125.117188 317.597656 C 124.855469 294.414062 133.734375 274.558594 151.5 258.585938 C 165.394531 246.09375 180.339844 239.832031 196.160156 239.832031 C 205.136719 239.832031 214.394531 241.84375 223.898438 245.882812 C 243.683594 254.285156 257.199219 268.753906 257.332031 268.898438 C 257.800781 269.402344 258.511719 269.605469 259.171875 269.410156 C 259.832031 269.222656 260.332031 268.675781 260.457031 268 C 264.566406 246.277344 274.925781 231.285156 290.410156 224.636719 C 307.507812 217.296875 329.796875 221.140625 351.558594 235.179688 C 368.875 246.351562 381.304688 272.605469 383.996094 303.695312 C 386.488281 332.527344 383.210938 406.632812 302.558594 485.695312 C 242.011719 460.757812 195.90625 433.277344 177.320312 417.300781 Z M 177.320312 417.300781 " fill-opacity="1" fill-rule="nonzero"/></g><path fill="#000000" d="M 691.371094 485.027344 C 693.46875 483.964844 695.449219 482.957031 697.046875 482.554688 C 704.484375 480.667969 707.726562 482.269531 720.210938 501.304688 C 723.476562 506.289062 727.585938 508.867188 732.09375 508.867188 C 733.644531 508.867188 735.242188 508.5625 736.867188 507.945312 C 749.617188 503.089844 761.636719 478.574219 758.03125 454.242188 C 754.96875 433.609375 747.957031 420.03125 737.1875 413.890625 C 728.195312 408.761719 716.75 408.96875 703.175781 414.5 C 682.566406 422.898438 665.253906 440.171875 660.097656 457.480469 C 657.53125 466.101562 658.339844 473.792969 662.4375 479.726562 C 672.65625 494.511719 683.921875 488.804688 691.371094 485.027344 Z M 663.585938 458.519531 C 668.445312 442.210938 684.90625 425.875 704.546875 417.871094 C 717.035156 412.78125 727.414062 412.503906 735.386719 417.050781 C 745.132812 422.609375 751.539062 435.304688 754.429688 454.777344 C 757.742188 477.105469 746.824219 500.257812 735.574219 504.542969 C 730.847656 506.339844 726.707031 504.578125 723.253906 499.308594 C 712.878906 483.484375 707.9375 478.308594 701.105469 478.308594 C 699.574219 478.308594 697.953125 478.570312 696.152344 479.023438 C 694.164062 479.53125 692.007812 480.621094 689.726562 481.777344 C 682.28125 485.554688 673.839844 489.824219 665.429688 477.65625 C 661.980469 472.667969 661.34375 466.046875 663.585938 458.519531 Z M 663.585938 458.519531 " fill-opacity="1" fill-rule="nonzero"/><path fill="#000000" d="M 795.582031 404.769531 C 790.753906 402.78125 785.15625 403.59375 779.824219 407.066406 C 774.707031 410.398438 770.410156 415.828125 767.726562 422.351562 C 765.039062 428.875 764.273438 435.753906 765.5625 441.726562 C 766.90625 447.941406 770.308594 452.460938 775.140625 454.449219 C 776.851562 455.15625 778.652344 455.492188 780.484375 455.492188 C 789.054688 455.492188 798.351562 448.148438 802.996094 436.867188 C 808.632812 423.171875 805.308594 408.769531 795.582031 404.769531 Z M 799.628906 435.480469 C 794.753906 447.324219 784.382812 454.320312 776.523438 451.082031 C 772.832031 449.566406 770.203125 445.964844 769.121094 440.957031 C 767.984375 435.699219 768.6875 429.582031 771.09375 423.734375 C 773.5 417.886719 777.304688 413.050781 781.816406 410.117188 C 784.628906 408.285156 787.484375 407.347656 790.15625 407.347656 C 791.566406 407.347656 792.925781 407.609375 794.199219 408.132812 C 802.066406 411.375 804.503906 423.640625 799.628906 435.480469 Z M 799.628906 435.480469 " fill-opacity="1" fill-rule="nonzero"/><path fill="#000000" d="M 671.1875 411.671875 C 672.902344 412.375 674.703125 412.710938 676.535156 412.710938 C 685.101562 412.710938 694.402344 405.371094 699.046875 394.085938 C 704.683594 380.390625 701.359375 365.992188 691.632812 361.988281 C 686.804688 360.003906 681.207031 360.816406 675.875 364.289062 C 670.757812 367.621094 666.457031 373.050781 663.777344 379.574219 C 661.089844 386.09375 660.324219 392.976562 661.613281 398.949219 C 662.957031 405.164062 666.355469 409.679688 671.1875 411.671875 Z M 667.140625 380.957031 C 669.546875 375.109375 673.355469 370.269531 677.863281 367.335938 C 680.675781 365.503906 683.53125 364.570312 686.207031 364.570312 C 687.613281 364.570312 688.976562 364.832031 690.25 365.355469 C 698.117188 368.59375 700.554688 380.859375 695.679688 392.703125 C 690.804688 404.546875 680.4375 411.542969 672.574219 408.304688 C 668.882812 406.789062 666.253906 403.1875 665.171875 398.179688 C 664.035156 392.921875 664.734375 386.804688 667.140625 380.957031 Z M 667.140625 380.957031 " fill-opacity="1" fill-rule="nonzero"/><path fill="#000000" d="M 716.738281 393.105469 C 718.46875 393.816406 720.292969 394.167969 722.171875 394.167969 C 725.542969 394.167969 729.074219 393.035156 732.496094 390.808594 C 737.617188 387.472656 741.914062 382.046875 744.59375 375.523438 C 750.230469 361.824219 746.90625 347.425781 737.183594 343.425781 C 727.457031 339.421875 714.960938 347.3125 709.324219 361.007812 C 706.640625 367.53125 705.871094 374.414062 707.160156 380.382812 C 708.507812 386.601562 711.90625 391.117188 716.738281 393.105469 Z M 712.691406 362.394531 C 716.757812 352.511719 724.648438 346.003906 731.726562 346.003906 C 733.128906 346.003906 734.496094 346.257812 735.796875 346.792969 C 743.664062 350.03125 746.101562 362.300781 741.226562 374.140625 C 738.824219 379.988281 735.015625 384.824219 730.507812 387.757812 C 726.214844 390.554688 721.816406 391.261719 718.121094 389.742188 C 714.429688 388.222656 711.800781 384.625 710.71875 379.613281 C 709.585938 374.355469 710.285156 368.242188 712.691406 362.394531 Z M 712.691406 362.394531 " fill-opacity="1" fill-rule="nonzero"/><path fill="#000000" d="M 746.273438 396.480469 C 747.617188 402.695312 751.015625 407.214844 755.847656 409.203125 C 757.5625 409.910156 759.363281 410.242188 761.195312 410.242188 C 769.765625 410.242188 779.0625 402.902344 783.707031 391.621094 C 789.34375 377.921875 786.019531 363.523438 776.292969 359.523438 C 771.464844 357.535156 765.867188 358.347656 760.535156 361.820312 C 755.417969 365.152344 751.121094 370.578125 748.4375 377.101562 C 745.75 383.625 744.984375 390.507812 746.273438 396.480469 Z M 751.804688 378.488281 C 754.207031 372.640625 758.015625 367.800781 762.523438 364.867188 C 765.339844 363.039062 768.195312 362.101562 770.867188 362.101562 C 772.277344 362.101562 773.636719 362.363281 774.910156 362.886719 C 782.777344 366.125 785.214844 378.394531 780.34375 390.230469 C 775.464844 402.074219 765.097656 409.070312 757.234375 405.835938 C 753.542969 404.316406 750.914062 400.71875 749.832031 395.707031 C 748.695312 390.453125 749.394531 384.335938 751.804688 378.488281 Z M 751.804688 378.488281 " fill-opacity="1" fill-rule="nonzero"/></svg>