<svg xmlns="http://www.w3.org/2000/svg" xmlns:xlink="http://www.w3.org/1999/xlink" width="1080" zoomAndPan="magnify" viewBox="0 0 810 809.999993" height="1080" preserveAspectRatio="xMidYMid meet" version="1.0"><path fill="#015861" d="M 143.789062 134.582031 C 141.296875 135.859375 140.421875 136.945312 138.613281 140.566406 C 135.523438 146.617188 135.183594 150.59375 136.996094 156.175781 C 138.675781 161.21875 140.359375 163.644531 143.125 165.054688 C 151.195312 169.226562 160.625 159.003906 160.625 146.082031 C 160.542969 135.601562 152.601562 130.152344 143.789062 134.582031 Z M 143.789062 134.582031 " fill-opacity="1" fill-rule="nonzero"/><path fill="#015861" d="M 482.28125 175.03125 C 481.210938 175.566406 479.046875 178.671875 476.296875 183.570312 C 460.6875 211.632812 437.867188 236.054688 410.953125 253.683594 C 404.289062 258.046875 392.175781 264.710938 391.835938 264.179688 C 391.703125 264.113281 390.832031 261.414062 389.8125 258.257812 C 385.171875 243.378906 377.164062 232.414062 367.734375 227.644531 C 358.789062 223.195312 350.703125 224.75 343.910156 232.21875 C 338.71875 237.863281 336.097656 244.527344 335.695312 253.214844 C 335.5 258.9375 335.628906 260.539062 336.84375 263.773438 C 339.738281 271.375 345.851562 276.972656 354.40625 279.851562 C 359.875 281.675781 370.628906 281.824219 377.503906 280.207031 C 384.441406 278.589844 384.039062 278.183594 384.039062 285.65625 C 384.039062 297.300781 381.144531 305.304688 374.480469 312.4375 C 369.027344 318.359375 364.792969 320.507812 358.726562 320.507812 C 354.683594 320.507812 353.613281 320.234375 351.1875 318.699219 C 345.464844 314.863281 342.972656 307.925781 340.964844 289.554688 C 338.75 269.96875 337.730469 266.539062 333.300781 264.386719 C 328.722656 262.238281 326.167969 264.386719 305.578125 287.53125 C 292.65625 302.007812 231.886719 362.027344 231.015625 361.152344 C 230.886719 361.023438 230.546875 335.710938 230.269531 305.03125 C 229.738281 242.054688 230.480469 217.292969 233.359375 198.855469 C 234.425781 191.996094 232.828125 188.957031 228.105469 188.957031 C 225.417969 188.957031 179.515625 197.773438 162.953125 201.476562 C 142.703125 205.988281 125.949219 210.355469 92.226562 219.914062 C 54.960938 230.472656 36.179688 234.839844 12.292969 238.414062 C 5.222656 239.417969 2.878906 240.5 1.664062 243.121094 C 0.046875 246.761719 4.027344 250.785156 8.328125 249.976562 C 9.414062 249.769531 11.417969 249.300781 12.90625 248.976562 C 14.378906 248.570312 20.316406 247.421875 26.023438 246.484375 C 44.933594 243.25 62.964844 238.882812 94.328125 230.003906 C 127.839844 220.511719 152.261719 214.1875 172.382812 209.886719 C 192.441406 205.648438 221.84375 200.132812 222.3125 200.601562 C 222.523438 200.875 222.378906 204.773438 221.910156 209.285156 C 220.015625 230.085938 219.691406 247.84375 220.164062 309.21875 L 220.632812 371.261719 L 211.21875 380.414062 C 195.738281 395.421875 170.039062 423.078125 156.175781 439.703125 C 106.378906 499.449219 76.84375 554.160156 68.691406 601.808594 C 67.285156 609.957031 67.074219 629.398438 68.289062 635.59375 C 71.523438 651.476562 79.867188 665.140625 90.15625 671.320312 C 104.355469 679.859375 123.050781 679.535156 141.101562 670.445312 C 172.722656 654.5 195.351562 618.222656 210.75 558.738281 C 222.796875 512.371094 230.59375 445.964844 230.59375 389.777344 L 230.59375 376.191406 L 245.265625 362.203125 C 291.296875 318.066406 305.285156 303.933594 322.109375 284.347656 C 325.535156 280.382812 328.640625 277.148438 328.902344 277.148438 C 329.242188 277.148438 329.5 277.683594 329.5 278.296875 C 329.5 282.277344 332.394531 304.078125 333.542969 308.445312 C 336.226562 318.875 342.359375 326.6875 350.234375 329.648438 C 355.878906 331.796875 363.902344 331.328125 369.886719 328.5625 C 381.191406 323.179688 389.40625 312.890625 392.835938 299.4375 C 393.90625 295.261719 394.179688 292.496094 394.050781 284.703125 L 393.855469 275.015625 L 401.925781 270.839844 C 419.894531 261.558594 436.78125 248.765625 452.664062 232.351562 C 460.605469 224.132812 469.761719 213.167969 474 206.78125 C 475.339844 204.757812 476.488281 203.222656 476.617188 203.351562 C 476.683594 203.417969 476.34375 207.589844 475.808594 212.570312 C 473.59375 233.691406 473.851562 251.59375 476.617188 262.902344 C 478.027344 268.882812 482.878906 278.78125 486.308594 282.679688 C 498.210938 296.347656 518.816406 297.949219 541.152344 286.980469 C 568.535156 273.460938 594.851562 247.082031 617.996094 209.660156 C 621.167969 204.546875 623.851562 200.503906 623.980469 200.570312 C 624.046875 200.699219 623.707031 207.574219 623.238281 215.917969 C 622.703125 224.261719 621.960938 243.167969 621.554688 257.96875 C 621.152344 272.765625 620.683594 289.183594 620.488281 294.503906 L 620.082031 304.0625 L 616.929688 305.871094 C 595.191406 318.261719 578.09375 331.3125 560.273438 349.136719 C 553.816406 355.589844 546.199219 363.675781 543.386719 366.972656 C 513.980469 402.101562 490.285156 446.917969 476.554688 493.480469 C 458.925781 553.304688 461.609375 605.316406 484.222656 639.636719 C 491.691406 651.070312 500.636719 659.222656 511.539062 664.460938 C 519.546875 668.359375 525.804688 669.703125 534.085938 669.167969 C 542.15625 668.699219 546.945312 667.421875 554.609375 663.71875 C 589.335938 646.832031 610.671875 599.1875 619.550781 518.242188 C 621.976562 496.164062 623.125 475.722656 624.9375 422.15625 C 625.339844 410.640625 625.9375 395.988281 626.277344 389.519531 C 626.617188 383.066406 627.492188 365.292969 628.300781 350.15625 C 629.042969 334.953125 629.851562 319.8125 630.046875 316.433594 L 630.449219 310.238281 L 637.582031 306.875 C 672.714844 290.25 710.804688 282.921875 742.019531 286.820312 C 757.5625 288.777344 768.738281 291.867188 780.707031 297.65625 C 791.269531 302.765625 798.273438 307.488281 799.488281 310.367188 C 801.167969 314.410156 804.53125 315.21875 807.898438 312.390625 C 809.578125 310.984375 809.984375 310.175781 809.984375 307.878906 C 809.984375 305.453125 809.578125 304.789062 806.75 302.023438 C 799.957031 295.488281 783.472656 286.675781 769.9375 282.308594 C 755.945312 277.796875 741.808594 275.773438 724.179688 275.773438 C 696.992188 275.773438 668.992188 281.96875 640.609375 294.277344 C 635.902344 296.363281 631.730469 298.109375 631.390625 298.175781 C 630.386719 298.449219 631.664062 245.757812 633.347656 217.226562 C 634.496094 198.191406 634.625 182.441406 633.6875 179.882812 C 633.28125 178.882812 632.070312 177.734375 630.660156 177.117188 C 628.640625 176.308594 627.976562 176.308594 626.085938 177.117188 C 624.207031 177.863281 623.253906 179.140625 620.570312 184.316406 C 612.289062 200.539062 600.253906 219.039062 588.949219 233.238281 C 570.234375 256.65625 546.621094 275.289062 527.648438 281.484375 C 504.035156 289.148438 489.21875 279.398438 485.320312 253.550781 C 483.574219 242.246094 484.109375 230.601562 487.746094 198.175781 C 490.027344 177.863281 489.960938 176.4375 486.597656 174.902344 C 484.496094 173.949219 484.367188 173.949219 482.28125 175.03125 Z M 363.707031 237.136719 C 370.242188 240.371094 375.480469 248.101562 379.65625 260.554688 C 381.675781 266.410156 381.953125 267.960938 381.207031 268.433594 C 380.738281 268.773438 378.117188 269.5 375.417969 270.113281 C 368.15625 271.730469 359.195312 271.179688 354.761719 268.902344 C 350.71875 266.816406 348.164062 264.195312 346.757812 260.832031 C 343.796875 253.761719 347.761719 240.515625 353.953125 236.734375 C 356.851562 234.921875 359.535156 235.050781 363.707031 237.136719 Z M 618.546875 342.714844 C 616.460938 382.210938 615.585938 400.386719 614.84375 420.425781 C 613.628906 455.085938 612.820312 474.800781 612.078125 485.699219 C 605.816406 581.460938 585.097656 637.777344 549.902344 654.597656 C 543.984375 657.425781 536.640625 659.304688 531.59375 659.304688 C 521.90625 659.238281 510.390625 653.789062 501.785156 645.167969 C 474.46875 617.851562 467.804688 563.882812 484.285156 503.589844 C 499.828125 447 529.167969 394.582031 566.046875 357.496094 C 580.375 343.101562 593.574219 332.460938 610.460938 321.707031 L 619.210938 316.125 L 619.421875 319.621094 C 619.550781 321.59375 619.160156 331.945312 618.546875 342.714844 Z M 219.824219 414.039062 C 218.480469 446.335938 216.183594 471.710938 212.351562 497.476562 C 197.617188 596.921875 169.34375 652.042969 126.269531 665.433594 C 119.136719 667.648438 108.367188 667.714844 101.914062 665.496094 C 88.585938 660.921875 80.109375 648.0625 77.75 628.898438 C 74.855469 605.285156 85.414062 567.859375 105.277344 531.050781 C 127.824219 489.195312 160.996094 446.125 205.6875 400.648438 L 220.164062 385.976562 L 220.371094 391.234375 C 220.5 394.195312 220.292969 404.414062 219.824219 414.039062 Z M 219.824219 414.039062 " fill-opacity="1" fill-rule="nonzero"/></svg>