<svg xmlns="http://www.w3.org/2000/svg" xmlns:xlink="http://www.w3.org/1999/xlink" width="1080" zoomAndPan="magnify" viewBox="0 0 810 809.999993" height="1080" preserveAspectRatio="xMidYMid meet" version="1.0"><path fill="#f69ee8" d="M 559.867188 314.457031 C 610.410156 295.402344 669.195312 299.457031 716.628906 325.402344 C 752.578125 344.996094 782.441406 377.835938 793.523438 417.296875 C 809.875 475.40625 782.171875 540.8125 733.523438 576.488281 C 684.738281 612.03125 619.058594 619.734375 560.542969 604.734375 C 502.164062 589.734375 450.675781 553.921875 408.648438 510.542969 C 356.078125 456.082031 313.917969 386.890625 244.996094 355.671875 C 199.589844 334.996094 143.507812 334.589844 101.75 361.753906 C 59.855469 388.78125 37.019531 445.40625 55.53125 491.757812 C 63.773438 512.839844 79.585938 530.40625 97.832031 543.652344 C 135.128906 570.410156 184.453125 579.734375 228.914062 568.515625 C 213.101562 549.730469 203.375 523.921875 209.726562 500 C 216.078125 476.21875 242.15625 457.433594 265.671875 464.460938 C 286.890625 470.8125 298.242188 493.109375 307.292969 513.246094 C 314.996094 493.921875 336.621094 481.351562 357.160156 483.917969 C 377.703125 486.621094 395.40625 504.460938 397.835938 525.136719 C 399.863281 541.757812 392.703125 558.652344 381.757812 571.355469 C 370.808594 584.191406 356.484375 593.515625 342.027344 602.164062 C 325.539062 611.894531 308.511719 620.949219 291.078125 629.058594 C 279.589844 634.328125 267.835938 622.167969 261.484375 611.21875 C 254.996094 600.140625 245.535156 587.03125 233.105469 589.867188 C 178.101562 602.300781 117.15625 594.191406 71.75 560.679688 C 26.34375 527.164062 0.125 466.621094 14.316406 412.027344 C 19.71875 391.214844 30.53125 371.890625 44.585938 355.402344 C 90.804688 301.210938 169.859375 282.292969 239.589844 296.886719 C 309.320312 311.617188 370.132812 355.671875 417.433594 409.054688 C 438.109375 432.433594 456.621094 457.703125 477.976562 480.40625 C 504.730469 508.648438 536.21875 532.839844 572.707031 546.355469 C 609.058594 559.734375 650.546875 561.488281 686.222656 546.355469 C 721.898438 531.082031 750.550781 497.570312 755.007812 459.054688 C 760.144531 414.730469 732.710938 370.539062 693.925781 348.375 C 655.140625 326.347656 607.574219 323.78125 563.921875 333.644531 C 572.84375 345.269531 582.167969 360.808594 574.597656 373.375 C 568.921875 382.566406 556.625 385.132812 545.8125 384.457031 C 535.136719 383.78125 524.191406 381.078125 513.652344 383.511719 C 500.40625 386.484375 490.40625 397.160156 479.460938 405.402344 C 468.648438 413.648438 453.246094 419.59375 441.621094 412.566406 C 430 405.402344 428.378906 389.1875 429.460938 375.671875 C 431.082031 354.996094 436.351562 333.78125 449.324219 317.699219 C 462.296875 301.484375 484.328125 291.484375 504.328125 297.160156 C 523.515625 302.5625 541.21875 321.484375 559.867188 314.457031 " fill-opacity="1" fill-rule="nonzero"/><path fill="#f69ee8" d="M 578.519531 247.832031 C 582.707031 263.101562 579.328125 280.265625 569.464844 292.699219 C 566.492188 296.484375 562.839844 299.996094 558.382812 301.753906 C 549.867188 305.265625 539.597656 302.023438 533.246094 295.402344 C 526.894531 288.914062 523.921875 279.589844 523.382812 270.402344 C 522.839844 261.886719 524.191406 253.101562 527.433594 245.128906 C 531.894531 234.589844 540.949219 224.453125 552.4375 224.183594 C 565.003906 223.914062 575.140625 235.671875 578.519531 247.832031 " fill-opacity="1" fill-rule="nonzero"/><path fill="#f69ee8" d="M 397.160156 352.96875 C 382.835938 349.996094 370.539062 339.589844 363.78125 326.617188 C 360.539062 320.402344 358.378906 313.511719 358.78125 306.484375 C 359.1875 299.589844 362.296875 292.5625 367.972656 288.507812 C 375.675781 283.238281 386.082031 284.183594 394.730469 287.5625 C 408.648438 293.238281 419.863281 305.265625 424.460938 319.726562 C 427.703125 329.996094 426.890625 342.835938 418.378906 349.457031 C 412.566406 354.050781 404.460938 354.457031 397.160156 352.96875 " fill-opacity="1" fill-rule="nonzero"/><path fill="#f69ee8" d="M 460.675781 237.699219 C 459.191406 234.046875 458.109375 230.398438 457.433594 226.617188 C 455.542969 217.15625 456.21875 207.292969 459.324219 198.101562 C 462.296875 189.589844 467.839844 181.34375 476.21875 178.238281 C 483.378906 175.667969 491.488281 177.289062 497.839844 181.34375 C 504.054688 185.398438 508.785156 191.75 511.894531 198.507812 C 517.976562 211.886719 518.515625 227.695312 513.515625 241.617188 C 510.679688 249.589844 505.40625 257.292969 497.433594 260.402344 C 490.003906 263.238281 481.21875 261.347656 474.730469 256.75 C 468.109375 252.15625 463.648438 245.128906 460.675781 237.699219 " fill-opacity="1" fill-rule="nonzero"/><path fill="#f69ee8" d="M 449.054688 266.886719 C 445 276.886719 433.242188 282.429688 422.566406 281.347656 C 411.890625 280.265625 402.296875 273.375 395.945312 264.589844 C 389.59375 255.941406 385.945312 245.535156 383.109375 235.128906 C 380.539062 225.128906 384.59375 213.914062 392.835938 207.832031 C 401.082031 201.75 413.109375 201.34375 421.757812 207.019531 C 438.242188 217.5625 450.542969 235.535156 450.945312 255.128906 C 450.945312 259.050781 450.542969 263.101562 449.054688 266.886719 " fill-opacity="1" fill-rule="nonzero"/></svg>