<svg xmlns="http://www.w3.org/2000/svg" xmlns:xlink="http://www.w3.org/1999/xlink" width="1080" zoomAndPan="magnify" viewBox="0 0 810 809.999993" height="1080" preserveAspectRatio="xMidYMid meet" version="1.0"><path fill="#949390" d="M 570.691406 219.988281 C 608.195312 233.441406 663.539062 285.859375 686.03125 354.269531 C 708.523438 422.679688 695.238281 487.421875 658.933594 497.734375 C 622.628906 508.042969 567.023438 451.621094 526.667969 453.398438 C 486.3125 455.171875 431.28125 487.925781 385.195312 466.058594 C 339.105469 444.1875 387.253906 319.789062 428.355469 271.832031 C 469.453125 223.871094 511.296875 198.792969 570.691406 219.988281 Z M 570.691406 219.988281 " fill-opacity="1" fill-rule="nonzero"/><path fill="#949390" d="M 325.992188 140.476562 C 347.980469 125.535156 381.355469 139.828125 400.5625 172.152344 C 419.769531 204.472656 417.613281 242.578125 395.625 257.515625 C 373.636719 272.453125 340.160156 258.546875 320.929688 226.222656 C 301.699219 193.898438 303.976562 155.414062 325.992188 140.476562 Z M 325.992188 140.476562 " fill-opacity="1" fill-rule="nonzero"/><path fill="#949390" d="M 616.492188 198.144531 C 584.671875 185.339844 573.5 137.117188 593.207031 90.984375 C 612.390625 44.726562 653.324219 17.945312 684.617188 31.035156 C 715.90625 44.128906 725.835938 91.871094 706.722656 137.71875 C 687.132812 183.46875 648.214844 210.925781 616.492188 198.144531 Z M 616.492188 198.144531 " fill-opacity="1" fill-rule="nonzero"/><path fill="#949390" d="M 712.742188 207.617188 C 738.328125 180.855469 775.445312 175.269531 792.808594 194.1875 C 810.167969 213.105469 804.484375 250.058594 778.421875 276.578125 C 752.355469 303.097656 716.867188 309.453125 698.714844 290.460938 C 680.5625 271.46875 686.894531 234.375 712.742188 207.617188 Z M 712.742188 207.617188 " fill-opacity="1" fill-rule="nonzero"/><path fill="#949390" d="M 423.871094 103.90625 C 419.074219 54.296875 442.933594 9.933594 476.9375 5.089844 C 510.9375 0.246094 542.375 36.550781 547.195312 85.851562 C 551.390625 135.007812 529.546875 179.367188 496 184.621094 C 462.453125 189.871094 429.699219 153.78125 423.871094 103.90625 Z M 423.871094 103.90625 " fill-opacity="1" fill-rule="nonzero"/><path fill="#f69ee8" d="M 238.445312 503.058594 C 203.003906 521.257812 154.902344 580.386719 141.449219 651.078125 C 128 721.765625 149.53125 784.328125 186.84375 789.867188 C 224.152344 795.40625 272.039062 732.316406 312.273438 728.792969 C 352.511719 725.265625 411.332031 750.707031 454.203125 723.0625 C 497.078125 695.414062 433.269531 578.324219 386.320312 536.027344 C 339.371094 493.730469 294.601562 474.164062 238.445312 503.058594 Z M 238.445312 503.058594 " fill-opacity="1" fill-rule="nonzero"/><path fill="#f69ee8" d="M 470.820312 392.492188 C 447.082031 380.5 415.839844 399.011719 400.949219 433.542969 C 386.058594 468.070312 393.15625 505.480469 416.894531 517.46875 C 440.632812 529.457031 472.042969 511.328125 486.910156 476.703125 C 501.777344 442.078125 494.558594 404.457031 470.820312 392.492188 Z M 470.820312 392.492188 " fill-opacity="1" fill-rule="nonzero"/><path fill="#f69ee8" d="M 190.199219 487.230469 C 220.078125 470.445312 224.945312 421.144531 199.429688 377.960938 C 174.398438 334.558594 130.371094 313.21875 101.117188 330.363281 C 71.863281 347.507812 68.097656 396.015625 92.964844 439.007812 C 118.261719 481.789062 160.394531 503.992188 190.199219 487.230469 Z M 190.199219 487.230469 " fill-opacity="1" fill-rule="nonzero"/><path fill="#f69ee8" d="M 95.988281 509.050781 C 67.210938 485.816406 29.636719 485.074219 14.867188 506.078125 C 0.0976562 527.082031 10.480469 563.003906 39.734375 585.925781 C 68.988281 608.851562 105.003906 610.578125 120.566406 589.402344 C 136.125 568.230469 125.074219 532.144531 95.988281 509.050781 Z M 95.988281 509.050781 " fill-opacity="1" fill-rule="nonzero"/><path fill="#f69ee8" d="M 369.054688 368.871094 C 367.328125 319.066406 338.003906 278.160156 303.640625 277.753906 C 269.28125 277.34375 242.832031 317.414062 244.414062 366.90625 C 246.597656 416.183594 274.003906 457.328125 307.933594 458.214844 C 341.863281 459.105469 369.703125 419.011719 369.054688 368.871094 Z M 369.054688 368.871094 " fill-opacity="1" fill-rule="nonzero"/></svg>